<svg width="21" height="21" viewBox="0 0 21 21" fill="none" xmlns="http://www.w3.org/2000/svg">
    <path
        d="M15.6 3.3093L9.95 0.269297C9.35 -0.0507031 8.64 -0.0507031 8.04 0.269297L2.39998 3.3093C1.98998 3.5393 1.72998 3.9793 1.72998 4.4593C1.72998 4.9493 1.97998 5.3893 2.39998 5.6093L8.05 8.6493C8.35 8.8093 8.68 8.8893 9 8.8893C9.32 8.8893 9.66 8.8093 9.95 8.6493L15.6 5.6093C16.01 5.3893 16.27 4.9493 16.27 4.4593C16.27 3.9793 16.01 3.5393 15.6 3.3093Z"
        fill="#000000" />
    <path
        d="M7.12 9.7086L1.87 7.08863C1.46 6.87863 1 6.90863 0.61 7.13863C0.23 7.37863 0 7.78863 0 8.2386V13.1986C0 14.0586 0.48 14.8286 1.25 15.2186L6.5 17.8386C6.68 17.9286 6.88 17.9786 7.08 17.9786C7.31 17.9786 7.55 17.9086 7.76 17.7886C8.14 17.5486 8.37 17.1386 8.37 16.6886V11.7286C8.36 10.8686 7.88 10.0986 7.12 9.7086Z"
        fill="#000000" />
    <path
        d="M18.0001 8.2386V10.6986C17.5201 10.5586 17.0101 10.4986 16.5001 10.4986C15.1401 10.4986 13.8101 10.9686 12.7601 11.8086C11.3201 12.9386 10.5001 14.6486 10.5001 16.4986C10.5001 16.9886 10.5601 17.4786 10.6901 17.9486C10.5401 17.9286 10.3901 17.8686 10.2501 17.7786C9.87014 17.5486 9.64014 17.1386 9.64014 16.6886V11.7286C9.64014 10.8686 10.1201 10.0986 10.8801 9.7086L16.1301 7.08863C16.5401 6.87863 17.0001 6.90863 17.3901 7.13863C17.7701 7.37863 18.0001 7.78863 18.0001 8.2386Z"
        fill="#000000" />
    <path
        d="M20 13.7C20 13.69 19.99 13.68 19.98 13.67C19.94 13.61 19.89 13.55 19.84 13.5C19.83 13.49 19.82 13.47 19.81 13.46C19 12.56 17.81 12 16.5 12C15.24 12 14.09 12.52 13.27 13.36C12.48 14.17 12 15.28 12 16.5C12 17.34 12.24 18.14 12.65 18.82C12.87 19.19 13.15 19.53 13.47 19.81C13.49 19.82 13.5 19.83 13.51 19.84C13.56 19.89 13.61 19.93 13.67 19.98C13.67 19.98 13.67 19.98 13.68 19.98C13.69 19.99 13.7 20 13.71 20C14.46 20.63 15.43 21 16.5 21C18.14 21 19.57 20.12 20.35 18.82C20.58 18.43 20.76 18 20.87 17.55C20.96 17.21 21 16.86 21 16.5C21 15.44 20.63 14.46 20 13.7ZM18.18 17.23H17.25V18.2C17.25 18.61 16.91 18.95 16.5 18.95C16.09 18.95 15.75 18.61 15.75 18.2V17.23H14.82C14.41 17.23 14.07 16.89 14.07 16.48C14.07 16.07 14.41 15.73 14.82 15.73H15.75V14.84C15.75 14.43 16.09 14.09 16.5 14.09C16.91 14.09 17.25 14.43 17.25 14.84V15.73H18.18C18.59 15.73 18.93 16.07 18.93 16.48C18.93 16.89 18.6 17.23 18.18 17.23Z"
        fill="#000000" />
</svg>