<svg width="16" height="16" viewBox="0 0 16 16" fill="none" xmlns="http://www.w3.org/2000/svg">
<mask id="mask0_40000970_3658" style="mask-type:luminance" maskUnits="userSpaceOnUse" x="0" y="0" width="16" height="16">
<path d="M15.5 0.5V15.5H0.5V0.5H15.5Z" fill="white" stroke="white"/>
</mask>
<g mask="url(#mask0_40000970_3658)">
<path d="M5.3335 1.3335V3.3335" stroke="#212329" stroke-width="1.4" stroke-miterlimit="10" stroke-linecap="round" stroke-linejoin="round"/>
<path d="M10.6665 1.3335V3.3335" stroke="#212329" stroke-width="1.4" stroke-miterlimit="10" stroke-linecap="round" stroke-linejoin="round"/>
<path d="M2.3335 6.06006H13.6668" stroke="#212329" stroke-width="1.4" stroke-miterlimit="10" stroke-linecap="round" stroke-linejoin="round"/>
<path d="M14 5.66683V11.3335C14 13.3335 13 14.6668 10.6667 14.6668H5.33333C3 14.6668 2 13.3335 2 11.3335V5.66683C2 3.66683 3 2.3335 5.33333 2.3335H10.6667C13 2.3335 14 3.66683 14 5.66683Z" stroke="#212329" stroke-width="1.4" stroke-miterlimit="10" stroke-linecap="round" stroke-linejoin="round"/>
<path d="M10.4629 9.13281H10.4689" stroke="#212329" stroke-width="1.4" stroke-linecap="round" stroke-linejoin="round"/>
<path d="M10.4629 11.1328H10.4689" stroke="#212329" stroke-width="1.4" stroke-linecap="round" stroke-linejoin="round"/>
<path d="M7.99707 9.13281H8.00307" stroke="#BBBBBB" stroke-width="1.4" stroke-linecap="round" stroke-linejoin="round"/>
<path d="M7.99707 11.1328H8.00307" stroke="#BBBBBB" stroke-width="1.4" stroke-linecap="round" stroke-linejoin="round"/>
<path d="M5.5293 9.13281H5.53528" stroke="#BBBBBB" stroke-width="1.4" stroke-linecap="round" stroke-linejoin="round"/>
<path d="M5.5293 11.1328H5.53528" stroke="#BBBBBB" stroke-width="1.4" stroke-linecap="round" stroke-linejoin="round"/>
</g>
</svg>
