<svg width="24" height="19" viewBox="0 0 24 19" fill="none" xmlns="http://www.w3.org/2000/svg">
    <path
        d="M19.6001 18.7251L10.2751 9.4251C9.5751 9.59175 8.9251 9.8376 8.3251 10.1626C7.7251 10.4876 7.1751 10.8584 6.6751 11.2751C6.4251 11.4751 6.14595 11.5876 5.8376 11.6126C5.5293 11.6376 5.25845 11.5334 5.0251 11.3001C4.79178 11.0667 4.68344 10.7959 4.70012 10.4876C4.71678 10.1792 4.84178 9.91675 5.0751 9.7001C5.55845 9.26675 6.0751 8.88345 6.6251 8.5501C7.1751 8.21675 7.8001 7.90845 8.5001 7.6251L5.7251 4.8501C5.1418 5.1501 4.57095 5.4876 4.01262 5.8626C3.45428 6.2376 2.93344 6.63345 2.45011 7.0501C2.20011 7.26675 1.91678 7.37925 1.60011 7.3876C1.28344 7.39595 1.00844 7.28345 0.775115 7.0501C0.54178 6.81675 0.437613 6.54595 0.462613 6.2376C0.487613 5.92925 0.61678 5.66675 0.850115 5.4501C1.35011 5.0001 1.86678 4.58345 2.40011 4.2001C2.93344 3.81675 3.47512 3.4751 4.02512 3.1751L2.25011 1.4001C2.10011 1.2501 2.02511 1.07093 2.02511 0.862598C2.02511 0.654263 2.10011 0.475098 2.25011 0.325098C2.40011 0.175098 2.57928 0.100098 2.78762 0.100098C2.99594 0.100098 3.17511 0.175098 3.32511 0.325098L20.6751 17.6751C20.8251 17.8251 20.9001 18.0001 20.9001 18.2001C20.9001 18.4001 20.8251 18.5751 20.6751 18.7251C20.5251 18.8751 20.3459 18.9501 20.1376 18.9501C19.9293 18.9501 19.7501 18.8751 19.6001 18.7251ZM12.0001 17.8251C11.4001 17.8251 10.8751 17.6001 10.4251 17.1501C9.9751 16.7001 9.7501 16.1751 9.7501 15.5751C9.7501 14.9751 9.9751 14.4501 10.4251 14.0001C10.8751 13.5501 11.4001 13.3251 12.0001 13.3251C12.6001 13.3251 13.1251 13.5501 13.5751 14.0001C14.0251 14.4501 14.2501 14.9751 14.2501 15.5751C14.2501 16.1751 14.0251 16.7001 13.5751 17.1501C13.1251 17.6001 12.6001 17.8251 12.0001 17.8251ZM19.0001 11.2751C18.7668 11.5084 18.4918 11.6251 18.1751 11.6251C17.8584 11.6251 17.5751 11.5167 17.3251 11.3001C16.7918 10.8501 16.1959 10.3751 15.5376 9.8751C14.8793 9.3751 14.2751 8.91675 13.7251 8.5001L13.4251 8.2751C13.1751 8.09175 13.1168 7.8501 13.2501 7.5501C13.3835 7.2501 13.6168 7.13345 13.9501 7.2001C14.9001 7.38345 15.7709 7.67925 16.5626 8.0876C17.3543 8.49595 18.1168 9.01675 18.8501 9.6501C19.1001 9.86675 19.2459 10.1334 19.2876 10.4501C19.3293 10.7667 19.2334 11.0417 19.0001 11.2751ZM23.2251 7.0501C22.9918 7.28345 22.7126 7.39595 22.3876 7.3876C22.0626 7.37925 21.7751 7.26675 21.5251 7.0501C20.1418 5.88345 18.6584 4.95845 17.0751 4.2751C15.4918 3.59175 13.8001 3.2501 12.0001 3.2501C11.3835 3.2501 10.7918 3.2876 10.2251 3.3626C9.65845 3.4376 9.18345 3.54175 8.8001 3.6751C8.5001 3.7751 8.2126 3.75425 7.9376 3.6126C7.6626 3.47095 7.4751 3.2501 7.3751 2.9501C7.2751 2.6501 7.29595 2.35425 7.4376 2.0626C7.5793 1.77093 7.8001 1.58343 8.1001 1.5001C8.7001 1.31676 9.3293 1.1876 9.9876 1.1126C10.646 1.0376 11.3168 1.0001 12.0001 1.0001C14.1334 1.0001 16.1459 1.40426 18.0376 2.2126C19.9293 3.02095 21.6335 4.1001 23.1501 5.4501C23.3835 5.66675 23.5126 5.92925 23.5376 6.2376C23.5626 6.54595 23.4585 6.81675 23.2251 7.0501Z"
        fill="#000000" />
</svg>