<svg width="24" height="17" viewBox="0 0 24 17" fill="none" xmlns="http://www.w3.org/2000/svg">
    <path
        d="M11.9998 16.825C11.3998 16.825 10.8748 16.6 10.4248 16.15C9.9748 15.7 9.7498 15.175 9.7498 14.575C9.7498 13.975 9.9748 13.45 10.4248 13C10.8748 12.55 11.3998 12.325 11.9998 12.325C12.5998 12.325 13.1248 12.55 13.5748 13C14.0248 13.45 14.2498 13.975 14.2498 14.575C14.2498 15.175 14.0248 15.7 13.5748 16.15C13.1248 16.6 12.5998 16.825 11.9998 16.825ZM11.9998 6C13.2998 6 14.5165 6.22915 15.6498 6.6875C16.7831 7.14585 17.8748 7.825 18.9248 8.725C19.1582 8.925 19.2832 9.17915 19.2998 9.4875C19.3165 9.79585 19.2082 10.0667 18.9748 10.3C18.7415 10.5333 18.4748 10.6417 18.1748 10.625C17.8748 10.6083 17.5998 10.5 17.3498 10.3C16.4665 9.56665 15.579 9.04165 14.6873 8.725C13.7956 8.40835 12.8998 8.25 11.9998 8.25C11.0998 8.25 10.204 8.40835 9.3123 8.725C8.42065 9.04165 7.53315 9.56665 6.6498 10.3C6.3998 10.5 6.1248 10.6083 5.8248 10.625C5.5248 10.6417 5.25815 10.5333 5.0248 10.3C4.79148 10.0667 4.68315 9.79585 4.69981 9.4875C4.71648 9.17915 4.84148 8.925 5.0748 8.725C6.1248 7.825 7.2165 7.14585 8.3498 6.6875C9.48315 6.22915 10.6998 6 11.9998 6ZM11.9998 0C14.1332 0 16.1456 0.404165 18.0373 1.2125C19.929 2.02085 21.6332 3.1 23.1498 4.45C23.3832 4.66665 23.5123 4.92915 23.5373 5.2375C23.5623 5.54585 23.4582 5.81665 23.2248 6.05C22.9915 6.28335 22.7123 6.39585 22.3873 6.3875C22.0623 6.37915 21.7748 6.26665 21.5248 6.05C20.1415 4.88335 18.6581 3.95835 17.0748 3.275C15.4915 2.59165 13.7998 2.25 11.9998 2.25C10.1998 2.25 8.50815 2.59165 6.9248 3.275C5.3415 3.95835 3.85815 4.88335 2.47481 6.05C2.22481 6.26665 1.94148 6.37915 1.62481 6.3875C1.30815 6.39585 1.03315 6.28335 0.79981 6.05C0.56648 5.81665 0.458145 5.54585 0.474811 5.2375C0.491478 4.92915 0.61648 4.66665 0.84981 4.45C2.36648 3.1 4.07064 2.02085 5.9623 1.2125C7.854 0.404165 9.8665 0 11.9998 0Z"
        fill="#000000" />
</svg>