<svg width="196" height="196" viewBox="0 0 196 196" fill="none" xmlns="http://www.w3.org/2000/svg">
<path d="M89.7805 152.95C123.705 152.95 151.205 125.449 151.205 91.5251C151.205 57.601 123.705 30.1001 89.7805 30.1001C55.8564 30.1001 28.3555 57.601 28.3555 91.5251C28.3555 125.449 55.8564 152.95 89.7805 152.95Z" fill="#F1F3FF"/>
<path d="M32.2055 53.9002C34.3318 53.9002 36.0555 52.1765 36.0555 50.0502C36.0555 47.9239 34.3318 46.2002 32.2055 46.2002C30.0792 46.2002 28.3555 47.9239 28.3555 50.0502C28.3555 52.1765 30.0792 53.9002 32.2055 53.9002Z" fill="#F1F3FF"/>
<path d="M111.13 30.1C115.093 30.1 118.305 26.8876 118.305 22.925C118.305 18.9624 115.093 15.75 111.13 15.75C107.167 15.75 103.955 18.9624 103.955 22.925C103.955 26.8876 107.167 30.1 111.13 30.1Z" fill="#F1F3FF"/>
<path d="M37.9803 147.35C41.7496 147.35 44.8053 144.295 44.8053 140.525C44.8053 136.756 41.7496 133.7 37.9803 133.7C34.2109 133.7 31.1553 136.756 31.1553 140.525C31.1553 144.295 34.2109 147.35 37.9803 147.35Z" fill="#F1F3FF"/>
<path d="M155.581 131.25C159.35 131.25 162.406 128.194 162.406 124.425C162.406 120.656 159.35 117.6 155.581 117.6C151.812 117.6 148.756 120.656 148.756 124.425C148.756 128.194 151.812 131.25 155.581 131.25Z" fill="#F1F3FF"/>
<path d="M142.28 135.45C144.116 135.45 145.605 133.961 145.605 132.125C145.605 130.288 144.116 128.8 142.28 128.8C140.444 128.8 138.955 130.288 138.955 132.125C138.955 133.961 140.444 135.45 142.28 135.45Z" fill="#F1F3FF"/>
<path d="M93.2887 33.0882C93.0861 33.045 93.0861 32.7554 93.2887 32.7123L96.3568 32.0599C96.4307 32.0441 96.4888 31.9865 96.5045 31.9126L97.1653 28.8663C97.2091 28.6644 97.4971 28.6644 97.5409 28.8663L98.2013 31.9126C98.2174 31.9865 98.2752 32.0441 98.3494 32.0599L101.417 32.7123C101.62 32.7554 101.62 33.045 101.417 33.0882L98.3494 33.7406C98.2752 33.7563 98.2174 33.8139 98.2013 33.8878L97.5409 36.9343C97.4971 37.1363 97.2091 37.1363 97.1653 36.9343L96.5045 33.8878C96.4888 33.8139 96.4307 33.7563 96.3568 33.7406L93.2887 33.0882Z" fill="#C4CBF5"/>
<path d="M23.1837 95.7677C23.2621 95.3977 23.7902 95.3977 23.8686 95.7677L25.0385 101.295C25.067 101.43 25.1719 101.535 25.3064 101.565L30.7767 102.756C31.1442 102.836 31.1442 103.36 30.7767 103.44L25.3064 104.632C25.1719 104.661 25.067 104.767 25.0385 104.901L23.8686 110.429C23.7902 110.799 23.2621 110.799 23.1837 110.429L22.0137 104.901C21.9852 104.767 21.8804 104.661 21.7458 104.632L16.2755 103.44C15.9082 103.36 15.9082 102.836 16.2755 102.756L21.7458 101.565C21.8804 101.535 21.9852 101.43 22.0137 101.295L23.1837 95.7677Z" fill="#C4CBF5"/>
<path d="M144.676 51.6676C144.755 51.2976 145.283 51.2976 145.361 51.6676L146.044 54.8922C146.072 55.0269 146.177 55.1322 146.312 55.1616L149.512 55.8589C149.879 55.939 149.879 56.4629 149.512 56.5427L146.312 57.24C146.177 57.2694 146.072 57.3747 146.044 57.5095L145.361 60.734C145.283 61.104 144.755 61.104 144.676 60.734L143.994 57.5095C143.965 57.3747 143.861 57.2694 143.726 57.24L140.525 56.5427C140.158 56.4629 140.158 55.939 140.525 55.8589L143.726 55.1616C143.861 55.1322 143.965 55.0269 143.994 54.8922L144.676 51.6676Z" fill="#C4CBF5"/>
<path d="M158.786 103.366L159.857 108.429L164.849 109.517L159.857 110.604L158.786 115.668L157.714 110.604L152.723 109.517L157.714 108.429L158.786 103.366Z" fill="white"/>
<path d="M124.605 63.7002L41.8301 95.3752L59.5051 144.55L70.1801 149.275L83.4801 152.075L96.9551 151.55L104.83 150.15L111.83 148.05L123.38 142.1L133.18 134.4L133.937 133.422C138.208 127.901 141.994 122.022 145.255 115.85L124.605 63.7002Z" fill="#F1F3FF"/>
<path d="M48.1309 81.3749L39.3809 76.4749L115.331 47.7749L111.306 57.7499L114.281 67.0249L51.4559 90.9999L48.1309 81.3749Z" fill="#DDE2FF"/>
<path d="M59.1553 144.375C66.814 148.291 75.1055 150.819 83.6455 151.844L83.859 151.87H89.9479C94.5091 151.87 99.057 151.385 103.515 150.422L105.025 150.096C109.792 149.067 114.394 147.386 118.702 145.101C122.064 143.319 125.224 141.18 128.128 138.723L129.071 137.925C131.592 135.792 133.931 133.453 136.064 130.932C139.05 127.403 141.616 123.537 143.708 119.414L145.605 115.675" stroke="#C4CBF5" stroke-width="4"/>
<path d="M41.1592 94.645L59.5055 144.713" stroke="#C4CBF5" stroke-width="4"/>
<path d="M125.334 63.6704L145.461 116.26" stroke="#C4CBF5" stroke-width="4"/>
<path d="M38.0098 76.6199L116.407 47.1611" stroke="#C4CBF5" stroke-width="4"/>
<path d="M40.7539 95.5468L124.232 63.3538L111.925 57.6387C111.572 57.4745 111.421 57.0535 111.589 56.7021L115.874 47.7344" stroke="#C4CBF5" stroke-width="4"/>
<path d="M38.7129 76.3784L47.5371 81.1094C47.8724 81.2893 48.0029 81.704 47.8304 82.0435L41.1594 95.1699" stroke="#C4CBF5" stroke-width="4"/>
<path d="M38.3594 75.7451L44.0451 89.9579" stroke="#C4CBF5" stroke-width="4"/>
<path d="M47.9551 81.8999L51.4551 91.6999" stroke="#C4CBF5" stroke-width="4"/>
<path d="M111.655 57.3999L115.155 67.5499" stroke="#C4CBF5" stroke-width="4"/>
<path d="M115.936 47.8984L120.959 61.7451" stroke="#C4CBF5" stroke-width="4"/>
<path d="M74.0305 94.4999C76.0601 94.4999 77.7055 92.8545 77.7055 90.8249C77.7055 88.7953 76.0601 87.1499 74.0305 87.1499C72.0008 87.1499 70.3555 88.7953 70.3555 90.8249C70.3555 92.8545 72.0008 94.4999 74.0305 94.4999Z" fill="#DDE2FF"/>
<path d="M68.7803 74.5498C70.23 74.5498 71.4053 73.3746 71.4053 71.9248C71.4053 70.4751 70.23 69.2998 68.7803 69.2998C67.3305 69.2998 66.1553 70.4751 66.1553 71.9248C66.1553 73.3746 67.3305 74.5498 68.7803 74.5498Z" fill="#F1F3FF"/>
<path d="M97.1301 85.7499C99.1597 85.7499 100.805 84.1045 100.805 82.0749C100.805 80.0453 99.1597 78.3999 97.1301 78.3999C95.1004 78.3999 93.4551 80.0453 93.4551 82.0749C93.4551 84.1045 95.1004 85.7499 97.1301 85.7499Z" fill="#DDE2FF"/>
<path d="M84.8809 68.6001C86.3306 68.6001 87.5059 67.4248 87.5059 65.9751C87.5059 64.5254 86.3306 63.3501 84.8809 63.3501C83.4311 63.3501 82.2559 64.5254 82.2559 65.9751C82.2559 67.4248 83.4311 68.6001 84.8809 68.6001Z" fill="#F1F3FF"/>
</svg>
