<svg width="23" height="19" viewBox="0 0 23 19" fill="none" xmlns="http://www.w3.org/2000/svg">
    <path
        d="M22.25 9.25003H19.9719C19.7804 6.73469 18.6215 4.39144 16.7386 2.71263C14.8558 1.03382 12.3955 0.150129 9.87474 0.247222C7.35398 0.344314 4.96897 1.41463 3.22081 3.2333C1.47264 5.05197 0.497408 7.47741 0.500005 10V12.25C0.50199 14.0396 1.21379 15.7554 2.47923 17.0208C3.74467 18.2863 5.4604 18.998 7.25 19H11C12.7896 18.998 14.5053 18.2863 15.7708 17.0208C17.0362 15.7554 17.748 14.0396 17.75 12.25V10.75H22.25C22.4489 10.75 22.6397 10.671 22.7803 10.5304C22.921 10.3897 23 10.1989 23 10C23 9.80112 22.921 9.61036 22.7803 9.4697C22.6397 9.32905 22.4489 9.25003 22.25 9.25003ZM7.25 14.875C6.805 14.875 6.36998 14.7431 5.99997 14.4958C5.62996 14.2486 5.34157 13.8972 5.17128 13.4861C5.00098 13.0749 4.95642 12.6225 5.04324 12.1861C5.13005 11.7496 5.34435 11.3487 5.65901 11.034C5.97368 10.7194 6.37459 10.5051 6.81105 10.4183C7.24751 10.3315 7.69991 10.376 8.11104 10.5463C8.52218 10.7166 8.87358 11.005 9.12081 11.375C9.36804 11.745 9.5 12.18 9.5 12.625C9.5 13.2218 9.26295 13.7941 8.841 14.216C8.41904 14.638 7.84674 14.875 7.25 14.875ZM16.25 12.25C16.2486 13.5521 15.764 14.8072 14.89 15.7723C14.016 16.7374 12.8149 17.3437 11.5194 17.4738C12.2947 16.8418 12.9195 16.0451 13.3486 15.1416C13.7777 14.238 14.0002 13.2503 14 12.25V10.75H16.25V12.25Z"
        fill="#000000" />
</svg>