<svg width="25" height="23" viewBox="0 0 25 23" fill="none" xmlns="http://www.w3.org/2000/svg">
    <path
        d="M0.912567 5.82002C0.939132 5.79829 0.965698 5.77657 0.993068 5.75419C1.52849 5.3412 2.27788 5.23376 2.91939 5.07052C3.02002 5.04468 3.12065 5.01881 3.22127 4.99292C3.42691 4.94003 3.63259 4.8873 3.83831 4.83469C4.11302 4.76441 4.3876 4.69362 4.66211 4.62257C4.7036 4.61183 4.74509 4.60109 4.78784 4.59003C4.87054 4.56862 4.95324 4.54722 5.03595 4.52581C5.24267 4.47232 5.44942 4.41897 5.65617 4.36562C6.11489 4.24723 6.57357 4.12874 7.03226 4.01023C7.24217 3.95599 7.45209 3.90176 7.662 3.84753C7.74593 3.82585 7.82987 3.80417 7.9138 3.78248C10.4318 3.13197 10.4318 3.13197 10.5577 3.09944C10.6416 3.07775 10.7256 3.05607 10.8095 3.03438C11.0192 2.98022 11.2288 2.92606 11.4385 2.87191C11.8184 2.77375 12.1984 2.67558 12.5783 2.57733C13.4529 2.35117 14.3276 2.12548 15.2027 1.90129C16.0482 1.68466 16.8932 1.46621 17.7383 1.24769C17.9917 1.18216 18.2451 1.11668 18.4985 1.05121C18.5401 1.04047 18.5816 1.02974 18.6244 1.01867C18.8329 0.96482 19.0413 0.91101 19.2498 0.857284C19.641 0.756411 20.0321 0.655125 20.4228 0.552437C20.6061 0.504287 20.7895 0.456365 20.9728 0.408458C21.0597 0.385694 21.1466 0.362822 21.2334 0.339829C22.9274 -0.108726 22.9274 -0.108726 23.7388 0.314794C23.7784 0.335244 23.8181 0.355695 23.8589 0.376764C24.3683 0.682161 24.7992 1.25558 24.9539 1.82872C25.1507 2.82519 24.7605 3.54594 24.26 4.37939C24.2194 4.44767 24.1789 4.51598 24.1384 4.58431C24.0531 4.72832 23.9675 4.87221 23.8818 5.016C23.6854 5.34572 23.4913 5.6768 23.2969 6.00771C23.186 6.19652 23.0749 6.38521 22.9638 6.57392C22.7203 6.98741 22.477 7.40095 22.2336 7.81451C22.1238 8.00122 22.0139 8.18793 21.904 8.37465C21.8601 8.44936 21.8161 8.52407 21.7722 8.59879C21.3325 9.34593 20.8929 10.0931 20.4533 10.8402C20.4315 10.8772 20.4097 10.9142 20.3873 10.9523C20.3433 11.027 20.2994 11.1017 20.2554 11.1765C20.1456 11.3631 20.0358 11.5497 19.926 11.7363C19.727 12.0745 19.5279 12.4128 19.3288 12.751C18.8895 13.4972 18.4504 14.2437 18.0127 14.9909C17.5527 15.7763 17.0912 16.5607 16.6294 17.3451C16.4527 17.6453 16.276 17.9456 16.0993 18.2458C16.012 18.3943 15.9246 18.5427 15.8373 18.6911C15.6339 19.0367 15.4306 19.3823 15.2277 19.7282C15.1333 19.889 15.039 20.0497 14.9446 20.2105C14.9002 20.286 14.8559 20.3616 14.8116 20.4372C14.5864 20.8217 14.3592 21.2049 14.1263 21.5848C14.1068 21.6168 14.0873 21.6488 14.0672 21.6818C13.7518 22.1924 13.2328 22.6145 12.6496 22.7757C11.961 22.9195 11.3518 22.8458 10.7473 22.4701C10.0387 21.9767 9.73708 21.1906 9.42283 20.4174C9.36125 20.2666 9.2984 20.1163 9.23568 19.966C9.12294 19.6954 9.01091 19.4245 8.89929 19.1534C8.58408 18.3881 8.2661 17.6239 7.9477 16.8598C7.8291 16.5751 7.71099 16.2901 7.59329 16.005C7.51907 15.8255 7.4445 15.6461 7.36985 15.4667C7.33495 15.3826 7.3002 15.2984 7.2656 15.2142C7.21785 15.0981 7.16957 14.9821 7.12116 14.8662C7.10746 14.8325 7.09377 14.7988 7.07966 14.7641C6.93725 14.4263 6.74622 14.1924 6.45727 13.9615C6.43093 13.9402 6.40459 13.919 6.37746 13.8972C6.29019 13.827 6.20252 13.7574 6.11484 13.6877C6.0522 13.6375 5.98957 13.5873 5.92697 13.5371C5.75844 13.4019 5.58956 13.2673 5.42061 13.1327C5.24476 12.9924 5.06924 12.8518 4.89368 12.7112C4.49797 12.3944 4.10176 12.0783 3.70545 11.7623C3.53556 11.6268 3.36573 11.4913 3.19589 11.3558C2.51502 10.8124 2.51502 10.8124 1.83362 10.2697C1.72674 10.1847 1.61989 10.0996 1.51304 10.0146C1.44057 9.95692 1.36805 9.89931 1.29554 9.84171C1.2525 9.80745 1.20947 9.77319 1.16513 9.7379C1.1279 9.70831 1.09068 9.67872 1.05233 9.64823C0.620446 9.29583 0.189903 8.79105 0.066939 8.23668C0.0583675 8.19971 0.049796 8.16274 0.0409648 8.12465C-0.0868062 7.43127 0.0924644 6.79233 0.484024 6.22006C0.60593 6.0602 0.754406 5.94239 0.912567 5.82002ZM1.46236 7.62516C1.49006 8.02298 1.6769 8.26101 1.96799 8.53042C2.10802 8.64739 2.25065 8.76057 2.39459 8.87265C2.44922 8.91587 2.50381 8.95914 2.55836 9.00247C2.67509 9.09501 2.79208 9.18721 2.90929 9.27915C3.09476 9.42462 3.27966 9.57081 3.46445 9.71716C3.52802 9.7675 3.59158 9.81783 3.65515 9.86816C3.68699 9.89338 3.71883 9.91859 3.75163 9.94456C3.84961 10.0221 3.94764 10.0996 4.04569 10.177C4.5189 10.5509 4.98979 10.9276 5.45945 11.3059C5.4922 11.3323 5.52495 11.3587 5.55869 11.3859C5.84634 11.6175 6.13389 11.8494 6.4213 12.0813C6.56945 12.2009 6.71769 12.3203 6.866 12.4397C6.92059 12.4836 6.97514 12.5277 7.02965 12.5717C7.1038 12.6317 7.1781 12.6915 7.25241 12.7512C7.29404 12.7848 7.33568 12.8184 7.37858 12.853C7.46393 12.9292 7.46393 12.9292 7.54062 12.9346C7.61732 12.8826 7.69214 12.8279 7.76617 12.7723C7.81451 12.7361 7.86286 12.6999 7.91267 12.6626C7.96661 12.6219 8.02055 12.5812 8.07449 12.5405C8.13101 12.4981 8.18755 12.4557 8.24409 12.4133C8.36616 12.3218 8.48814 12.2301 8.61007 12.1384C8.80293 11.9934 8.99608 11.8488 9.1893 11.7043C9.25539 11.6548 9.32149 11.6054 9.38758 11.5559C9.42069 11.5312 9.45379 11.5064 9.48791 11.4809C9.93786 11.1442 10.3876 10.8072 10.8367 10.4694C11.1394 10.2417 11.4424 10.0146 11.746 9.78812C11.9066 9.66819 12.0671 9.54799 12.227 9.42713C12.3776 9.31336 12.5287 9.20029 12.6802 9.08775C12.7356 9.04636 12.7909 9.00471 12.846 8.96279C12.9213 8.9055 12.9974 8.84922 13.0735 8.79298C13.1158 8.76122 13.1581 8.72946 13.2017 8.69674C13.3652 8.61029 13.4873 8.60326 13.671 8.60749C13.9087 8.68797 14.0639 8.82389 14.1783 9.04691C14.2478 9.27907 14.2349 9.45969 14.1235 9.67517C14.0213 9.77478 14.0213 9.77478 13.8934 9.87201C13.845 9.90923 13.7966 9.94645 13.7467 9.9848C13.6929 10.0253 13.6391 10.0658 13.5853 10.1062C13.5287 10.1494 13.4722 10.1926 13.4157 10.2359C13.2624 10.353 13.1086 10.4695 12.9548 10.5858C12.794 10.7075 12.6336 10.8299 12.4733 10.9522C12.1696 11.1837 11.8655 11.4146 11.5612 11.6453C11.2148 11.9079 10.8689 12.1712 10.523 12.4346C9.81153 12.9763 9.09949 13.5172 8.38704 14.0576C8.47367 14.325 8.56853 14.5859 8.67862 14.8445C8.70013 14.8956 8.70013 14.8956 8.72208 14.9477C8.7693 15.0597 8.81673 15.1716 8.86416 15.2835C8.89785 15.3633 8.93151 15.4431 8.96516 15.5229C9.05494 15.7358 9.14489 15.9486 9.23489 16.1614C9.40231 16.5573 9.56947 16.9532 9.73652 17.3493C9.75488 17.3928 9.77325 17.4363 9.79217 17.4812C10.0117 18.0018 10.2295 18.523 10.4423 19.0463C10.4775 19.133 10.5128 19.2196 10.5481 19.3062C10.6519 19.5607 10.7549 19.8155 10.8568 20.0708C11.1293 20.8221 11.1293 20.8221 11.7043 21.3306C11.9423 21.4024 12.1532 21.3928 12.3887 21.3137C12.7089 21.1136 12.8657 20.8696 13.0548 20.5475C13.0862 20.4952 13.1176 20.4429 13.15 20.389C13.2556 20.2127 13.3596 20.0354 13.4633 19.858C13.4816 19.8268 13.4999 19.7955 13.5188 19.7633C13.7185 19.422 13.9171 19.0802 14.1151 18.7379C14.3934 18.2566 14.6744 17.777 14.9567 17.298C14.9786 17.2609 15.0004 17.2237 15.023 17.1854C15.134 16.9969 15.2451 16.8084 15.3562 16.6199C15.5547 16.2831 15.753 15.9462 15.9512 15.6092C16.0611 15.4224 16.1709 15.2357 16.2808 15.049C16.3248 14.9742 16.3688 14.8995 16.4127 14.8248C17.0722 13.7041 17.0722 13.7041 17.7316 12.5834C17.7534 12.5464 17.7751 12.5094 17.7976 12.4713C17.8415 12.3966 17.8855 12.3219 17.9295 12.2472C18.0393 12.0605 18.1491 11.8739 18.2589 11.6873C18.4579 11.3491 18.6569 11.0108 18.856 10.6726C19.2954 9.92637 19.7345 9.17993 20.1721 8.43267C20.6093 7.68633 21.0478 6.94083 21.4867 6.19549C21.6235 5.963 21.7603 5.73046 21.897 5.49786C21.9885 5.34204 22.0801 5.18623 22.1717 5.03043C22.2384 4.91691 22.3051 4.80335 22.3718 4.6898C22.5667 4.35802 22.7624 4.02685 22.9622 3.69795C22.9951 3.64353 23.0281 3.58912 23.061 3.5347C23.12 3.43758 23.1793 3.34066 23.239 3.24401C23.4429 2.90799 23.6246 2.59092 23.5283 2.18968C23.4165 1.8916 23.2244 1.6958 22.9439 1.55298C22.6388 1.4801 22.3378 1.54702 22.0426 1.62906C22.0062 1.63875 21.9699 1.64845 21.9324 1.65843C21.854 1.67941 21.7756 1.70059 21.6972 1.72195C21.5715 1.75625 21.4455 1.79002 21.3196 1.82365C21.1869 1.85906 21.0543 1.89451 20.9217 1.93011C20.4492 2.05695 19.9757 2.17927 19.5019 2.30123C19.4171 2.32312 19.3322 2.34501 19.2474 2.3669C18.6683 2.5163 18.089 2.66495 17.5096 2.81338C16.6641 3.03002 15.8191 3.24847 14.974 3.46699C14.595 3.56501 14.2159 3.66293 13.8368 3.76086C13.627 3.81504 13.4173 3.86923 13.2075 3.92342C13.1236 3.9451 13.0396 3.96679 12.9557 3.98847C12.9142 3.99921 12.8726 4.00994 12.8298 4.021C10.4377 4.63899 10.4377 4.63899 10.3118 4.67151C10.2279 4.6932 10.1439 4.71489 10.06 4.73657C9.85034 4.79074 9.6407 4.84489 9.43106 4.89905C9.05108 4.9972 8.67112 5.09537 8.29117 5.19362C7.48878 5.40111 6.68635 5.60844 5.8835 5.81415C5.5919 5.88887 5.30032 5.96367 5.00875 6.03848C4.92678 6.05952 4.84481 6.08054 4.76284 6.10156C4.49447 6.17039 4.22613 6.23933 3.95783 6.30842C3.87214 6.33046 3.78645 6.35247 3.70074 6.37444C3.46411 6.43512 3.2277 6.49656 2.99152 6.559C2.91279 6.57962 2.83397 6.59992 2.75508 6.61992C2.63703 6.64986 2.51926 6.68078 2.40151 6.71187C2.36643 6.72051 2.33136 6.72916 2.29523 6.73806C1.83702 6.86182 1.51785 7.14005 1.46236 7.62516Z"
        fill="#000000" />
</svg>