<svg width="25" height="24" viewBox="0 0 25 24" fill="none" xmlns="http://www.w3.org/2000/svg">
    <g clip-path="url(#clip0_1823_2825)">
        <mask id="mask0_1823_2825" style="mask-type:luminance" maskUnits="userSpaceOnUse" x="0"
            y="0" width="25" height="24">
            <path d="M24.5 0H0.5V24H24.5V0Z" fill="white" />
        </mask>
        <g mask="url(#mask0_1823_2825)">
            <path
                d="M13.4998 14.75H12.4998C12.0898 14.75 11.7498 14.41 11.7498 14C11.7498 13.59 12.0898 13.25 12.4998 13.25H13.4998C14.1898 13.25 14.7498 12.69 14.7498 12V2.75H6.49978C5.31978 2.75 4.23975 3.38998 3.65975 4.41998C3.45975 4.77998 2.99979 4.91002 2.63979 4.71002C2.27979 4.51002 2.14975 4.05 2.34975 3.69C3.18975 2.19 4.77978 1.25 6.49978 1.25H15.4998C15.9098 1.25 16.2498 1.59 16.2498 2V12C16.2498 13.52 15.0198 14.75 13.4998 14.75Z"
                fill="#212329" />
            <path
                d="M19.5 20.75H18.5C18.09 20.75 17.75 20.41 17.75 20C17.75 19.31 17.19 18.75 16.5 18.75C15.81 18.75 15.25 19.31 15.25 20C15.25 20.41 14.91 20.75 14.5 20.75H10.5C10.09 20.75 9.75 20.41 9.75 20C9.75 19.31 9.19 18.75 8.5 18.75C7.81 18.75 7.25 19.31 7.25 20C7.25 20.41 6.91 20.75 6.5 20.75H5.5C3.43 20.75 1.75 19.07 1.75 17C1.75 16.59 2.09 16.25 2.5 16.25C2.91 16.25 3.25 16.59 3.25 17C3.25 18.24 4.26 19.25 5.5 19.25H5.84998C6.17998 18.1 7.24 17.25 8.5 17.25C9.76 17.25 10.82 18.1 11.15 19.25H13.86C14.19 18.1 15.25 17.25 16.51 17.25C17.77 17.25 18.83 18.1 19.16 19.25H19.5C20.74 19.25 21.75 18.24 21.75 17V14.75H19.5C18.54 14.75 17.75 13.96 17.75 13V10C17.75 9.04 18.53 8.25 19.5 8.25L18.43 6.38C18.21 5.99 17.79 5.75 17.34 5.75H16.25V12C16.25 13.52 15.02 14.75 13.5 14.75H12.5C12.09 14.75 11.75 14.41 11.75 14C11.75 13.59 12.09 13.25 12.5 13.25H13.5C14.19 13.25 14.75 12.69 14.75 12V5C14.75 4.59 15.09 4.25 15.5 4.25H17.34C18.33 4.25 19.24 4.78001 19.73 5.64001L21.44 8.63C21.57 8.86 21.57 9.15 21.44 9.38C21.31 9.61 21.06 9.75 20.79 9.75H19.5C19.36 9.75 19.25 9.86 19.25 10V13C19.25 13.14 19.36 13.25 19.5 13.25H22.5C22.91 13.25 23.25 13.59 23.25 14V17C23.25 19.07 21.57 20.75 19.5 20.75Z"
                fill="#212329" />
            <path
                d="M8.5 22.75C6.98 22.75 5.75 21.52 5.75 20C5.75 18.48 6.98 17.25 8.5 17.25C10.02 17.25 11.25 18.48 11.25 20C11.25 21.52 10.02 22.75 8.5 22.75ZM8.5 18.75C7.81 18.75 7.25 19.31 7.25 20C7.25 20.69 7.81 21.25 8.5 21.25C9.19 21.25 9.75 20.69 9.75 20C9.75 19.31 9.19 18.75 8.5 18.75Z"
                fill="#212329" />
            <path
                d="M16.5 22.75C14.98 22.75 13.75 21.52 13.75 20C13.75 18.48 14.98 17.25 16.5 17.25C18.02 17.25 19.25 18.48 19.25 20C19.25 21.52 18.02 22.75 16.5 22.75ZM16.5 18.75C15.81 18.75 15.25 19.31 15.25 20C15.25 20.69 15.81 21.25 16.5 21.25C17.19 21.25 17.75 20.69 17.75 20C17.75 19.31 17.19 18.75 16.5 18.75Z"
                fill="#212329" />
            <path
                d="M22.5 14.75H19.5C18.54 14.75 17.75 13.96 17.75 13V10C17.75 9.04 18.54 8.25 19.5 8.25H20.79C21.06 8.25 21.31 8.39 21.44 8.63L23.15 11.63C23.21 11.74 23.25 11.87 23.25 12V14C23.25 14.41 22.91 14.75 22.5 14.75ZM19.5 9.75C19.36 9.75 19.25 9.86 19.25 10V13C19.25 13.14 19.36 13.25 19.5 13.25H21.75V12.2L20.35 9.75H19.5Z"
                fill="#212329" />
            <path
                d="M8.5 8.75H2.5C2.09 8.75 1.75 8.41 1.75 8C1.75 7.59 2.09 7.25 2.5 7.25H8.5C8.91 7.25 9.25 7.59 9.25 8C9.25 8.41 8.91 8.75 8.5 8.75Z"
                fill="#212329" />
            <path
                d="M6.5 11.75H2.5C2.09 11.75 1.75 11.41 1.75 11C1.75 10.59 2.09 10.25 2.5 10.25H6.5C6.91 10.25 7.25 10.59 7.25 11C7.25 11.41 6.91 11.75 6.5 11.75Z"
                fill="#212329" />
            <path
                d="M4.5 14.75H2.5C2.09 14.75 1.75 14.41 1.75 14C1.75 13.59 2.09 13.25 2.5 13.25H4.5C4.91 13.25 5.25 13.59 5.25 14C5.25 14.41 4.91 14.75 4.5 14.75Z"
                fill="#212329" />
        </g>
    </g>
    <defs>
        <clipPath id="clip0_1823_2825">
            <rect width="24" height="24" fill="white" transform="translate(0.5)" />
        </clipPath>
    </defs>
</svg>